<html>
<head>
<meta charset="UTF-8">
<meta name="viewport" content="width=device-width, initial-scale=1.0"/>

<style>
.comment
{
    padding-left: 20px;
    margin-top: 4px;
    margin-right: 4px;
    margin-bottom: 4px;
    border: 2px #000 solid;
}
.submission
{
    border: 4px #00f solid;
    padding-left: 20px;
}
.hidden
{
    display: none;
}
</style>
</head>
<body><div class="submission" id="t3_82cuvl">
    <p class="userinfo">
        <a href="https://www.reddit.com/u/kdizzley">kdizzley</a>
        <span class="score"> | 11 points</span>
        <span class="timestamp"> | Mar 06 2018 06:01:31</span>
    </p>
    <strong>Supernatural.S13E10.1080p.AMZN.WEB-DL.x265.10bit.EAC3.6.0-Qman[UTR][1.19 GB]</strong>
    <p><p><strong>LINK:</strong> <a href="http://links.snahp.it/94S13E10.1080p"><strong>MEGA</strong></a></p>
<p>Requested by u/Shixpe.</p>
<p><strong>Supernatural (2005-) Season 13 Episode 10.</strong></p>
<p>Episodes 5, 11, 13, and 14 will also be uploaded in 1080p x265 in the near future. Enjoy :)</p>
<p>Any pass is the name of this sub.</p>
<p><strong>Media Information</strong>:</p>
<pre><code>General 
Format : Matroska 
Format version : Version 4 / Version 2 
File size : 1.19 GiB 
Duration : 42 min 21 s 
Overall bit rate : 4 026 kb/s 
Encoded date : UTC 2018-01-22 16:11:07 
Writing application : mkvmerge v19.0.0 ('Brave Captain') 64-bit 
Writing library : libebml v1.3.5 + libmatroska v1.4.8

Video 
ID : 1 
Format : HEVC 
Format/Info : High Efficiency Video Coding 
Format profile : Main 10@L4@Main 
Codec ID : V_MPEGH/ISO/HEVC 
Duration : 42 min 21 s 
Bit rate : 3 385 kb/s 
Width : 1 920 pixels 
Height : 1 080 pixels 
Display aspect ratio : 16:9 
Frame rate mode : Constant 
Frame rate : 23.976 (24000/1001) FPS 
Color space : YUV 
Chroma subsampling : 4:2:0 
Bit depth : 10 bits 
Bits/(Pixel*Frame) : 0.068 
Stream size : 1.00 GiB (84%) 
Writing library : x265 2.6+31-3712d13c09bf:[Windows][MSVC 1912][64 bit] 10bit 
Encoding settings : cpuid=1173503 / frame-threads=2 / numa-pools=4 / wpp / no-pmode / no-pme / no-psnr / no-ssim / log-level=2 / input-csp=1 / input-res=1920x1080 / interlace=0 / total-frames=60939 / level-idc=0 / high-tier=1 / uhd-bd=0 / ref=4 / no-allow-non-conformance / no-repeat-headers / annexb / no-aud / no-hrd / info / hash=0 / no-temporal-layers / open-gop / min-keyint=23 / keyint=250 / gop-lookahead=0 / bframes=8 / b-adapt=2 / b-pyramid / bframe-bias=0 / rc-lookahead=25 / lookahead-slices=4 / scenecut=40 / radl=0 / no-intra-refresh / ctu=64 / min-cu-size=8 / rect / no-amp / max-tu-size=32 / tu-inter-depth=1 / tu-intra-depth=1 / limit-tu=0 / rdoq-level=2 / dynamic-rd=0.00 / no-ssim-rd / signhide / no-tskip / nr-intra=0 / nr-inter=0 / no-constrained-intra / strong-intra-smoothing / max-merge=3 / limit-refs=3 / limit-modes / me=3 / subme=3 / merange=57 / temporal-mvp / weightp / no-weightb / no-analyze-src-pics / deblock=0:0 / sao / no-sao-non-deblock / rd=4 / no-early-skip / rskip / no-fast-intra / no-tskip-fast / no-cu-lossless / no-b-intra / no-splitrd-skip / rdpenalty=0 / psy-rd=2.00 / psy-rdoq=2.00 / no-rd-refine / no-lossless / cbqpoffs=0 / crqpoffs=0 / rc=crf / crf=21.5 / qcomp=0.60 / qpstep=4 / stats-write=0 / stats-read=0 / ipratio=1.40 / pbratio=1.30 / aq-mode=2 / aq-strength=1.00 / cutree / zone-count=0 / no-strict-cbr / qg-size=32 / no-rc-grain / qpmax=69 / qpmin=0 / no-const-vbv / sar=0 / overscan=0 / videoformat=5 / range=0 / colorprim=2 / transfer=2 / colormatrix=2 / chromaloc=0 / display-window=0 / max-cll=0,0 / min-luma=0 / max-luma=1023 / log2-max-poc-lsb=8 / vui-timing-info / vui-hrd-info / slices=1 / no-opt-qp-pps / no-opt-ref-list-length-pps / no-multi-pass-opt-rps / scenecut-bias=0.05 / no-opt-cu-delta-qp / no-aq-motion / no-hdr / no-hdr-opt / no-dhdr10-opt / analysis-reuse-level=5 / scale-factor=0 / refine-
intra=0 / refine-inter=0 / refine-mv=0 / no-limit-sao / ctu-info=0 / no-lowpass-dct / refine-mv-type=0 
/ copy-pic=1 
Language : English 
Default : Yes 
Forced : No

Audio 
ID : 2 
Format : E-AC-3 
Format/Info : Enhanced Audio Coding 3 
Format settings, Endianness : Big 
Codec ID : A_EAC3 
Duration : 42 min 21 s 
Bit rate mode : Constant 
Bit rate : 640 kb/s 
Channel(s) : 6 channels 
Channel positions : Front: L C R, Side: L R, LFE 
Sampling rate : 48.0 kHz 
Frame rate : 187.500 FPS (256 spf) 
Compression mode : Lossy 
Stream size : 194 MiB (16%) 
Language : English 
Default : Yes 
Forced : No
</code></pre></p>
    <p class="toolbar">
        <a href="https://www.reddit.com/r/megalinks/comments/82cuvl">permalink</a>
    </p>
</div>
<div class="comment" id="t1_dv9cwxn">
    <p class="userinfo">
        <a
        class="toggle_hide_button"
        href="javascript:void(0)"
        onclick="toggle_collapse(this.parentElement.parentElement)">[-]
        </a>
        <a href="https://www.reddit.com/u/1loveee">1loveee</a>
        <span class="score"> | 1 points</span>
        <span class="timestamp"> | Mar 06 2018 10:07:56</span>
    </p>
    <div class="collapsible">
        <p>thank u! will be waiting for 13x14 </p>
        <p class="toolbar">
            <a href="https://www.reddit.com/r/megalinks/comments/82cuvl/_/dv9cwxn">permalink</a>
        </p>
        <div class="comment" id="t1_dvd1d0z">
    <p class="userinfo">
        <a
        class="toggle_hide_button"
        href="javascript:void(0)"
        onclick="toggle_collapse(this.parentElement.parentElement)">[-]
        </a>
        <a href="https://www.reddit.com/u/kdizzley">kdizzley</a>
        <span class="score"> | 1 points</span>
        <span class="timestamp"> | Mar 08 2018 05:04:21</span>
    </p>
    <div class="collapsible">
        <p>Shit didn't even see this! I ended up just PM'ing to the requested user, will post momentarily!</p>
<p>EDIT: Up now! <a href="https://redd.it/82v4jk">(click me)</a></p>
        <p class="toolbar">
            <a href="https://www.reddit.com/r/megalinks/comments/82cuvl/_/dvd1d0z">permalink</a>
        </p>
        <div class="comment" id="t1_dvd8122">
    <p class="userinfo">
        <a
        class="toggle_hide_button"
        href="javascript:void(0)"
        onclick="toggle_collapse(this.parentElement.parentElement)">[-]
        </a>
        <a href="https://www.reddit.com/u/1loveee">1loveee</a>
        <span class="score"> | 1 points</span>
        <span class="timestamp"> | Mar 08 2018 08:21:38</span>
    </p>
    <div class="collapsible">
        <p>yay thank you!</p>
        <p class="toolbar">
            <a href="https://www.reddit.com/r/megalinks/comments/82cuvl/_/dvd8122">permalink</a>
        </p>
        
    </div>
</div>
    </div>
</div>
    </div>
</div>
</body>

<script>
function toggle_collapse(comment_div)
{
    var button = comment_div.getElementsByClassName("toggle_hide_button")[0];
    var collapsible = comment_div.getElementsByClassName("collapsible")[0];
    if (collapsible.classList.contains("hidden"))
    {
        collapsible.classList.remove("hidden");
        button.innerText = "[-]";
    }
    else
    {
        collapsible.classList.add("hidden");
        button.innerText = "[+]";
    }
}
</script>
</html>
